<svg xmlns="http://www.w3.org/2000/svg" width="48" height="48" viewBox="0 0 48 48">
  <path id="_15911974351553858111" data-name="15911974351553858111" d="M21.2,28.4a2.4,2.4,0,1,0,2.4,2.4A2.4,2.4,0,0,0,21.2,28.4Zm0-9.6a2.4,2.4,0,1,0,2.4,2.4A2.4,2.4,0,0,0,21.2,18.8Zm9.6,0a2.4,2.4,0,1,0,2.4,2.4A2.4,2.4,0,0,0,30.8,18.8Zm16.8,9.6a2.4,2.4,0,1,0,0-4.8H42.8V18.8h4.8a2.4,2.4,0,1,0,0-4.8H42.368A7.2,7.2,0,0,0,38,9.632V4.4a2.4,2.4,0,0,0-4.8,0V9.2H28.4V4.4a2.4,2.4,0,1,0-4.8,0V9.2H18.8V4.4a2.4,2.4,0,1,0-4.8,0V9.632A7.2,7.2,0,0,0,9.632,14H4.4a2.4,2.4,0,1,0,0,4.8H9.2v4.8H4.4a2.4,2.4,0,1,0,0,4.8H9.2v4.8H4.4a2.4,2.4,0,0,0,0,4.8H9.632A7.2,7.2,0,0,0,14,42.368V47.6a2.4,2.4,0,1,0,4.8,0V42.8h4.8v4.8a2.4,2.4,0,1,0,4.8,0V42.8h4.8v4.8a2.4,2.4,0,0,0,4.8,0V42.368A7.2,7.2,0,0,0,42.368,38H47.6a2.4,2.4,0,1,0,0-4.8H42.8V28.4ZM38,35.6A2.4,2.4,0,0,1,35.6,38H16.4A2.4,2.4,0,0,1,14,35.6V16.4A2.4,2.4,0,0,1,16.4,14H35.6A2.4,2.4,0,0,1,38,16.4Zm-7.2-7.2a2.4,2.4,0,1,0,2.4,2.4A2.4,2.4,0,0,0,30.8,28.4Z" transform="translate(-2 -2)" fill="#fff"/>
</svg>
